<?xml version="1.0" encoding="UTF-8"?>
<svg width="118px" height="125px" viewBox="0 0 118 125" version="1.1" xmlns="http://www.w3.org/2000/svg" xmlns:xlink="http://www.w3.org/1999/xlink">
    <!-- Generator: Sketch 52.5 (67469) - http://www.bohemiancoding.com/sketch -->
    <title>Group 2</title>
    <desc>Created with Sketch.</desc>
    <g id="Page-1-Copy" stroke="none" stroke-width="1" fill="none" fill-rule="evenodd">
        <g id="Group-2">
            <path d="M59,0.0963479421 C91.8896646,1.9118322 118,29.1567183 118,62.5 C118,95.8432817 91.8896646,123.088168 59,124.903652 L59,0.0963479421 Z" id="Combined-Shape" fill="#121145"></path>
            <path d="M2.62900812e-13,0.0963479421 C32.8896646,1.9118322 59,29.1567183 59,62.5 C59,95.8432817 32.8896646,123.088168 2.64455124e-13,124.903652 L0,0.0963479421 Z" id="Combined-Shape" fill="#DBAE22" transform="translate(29.500000, 62.500000) scale(-1, 1) translate(-29.500000, -62.500000) "></path>
            <g id="Group-10" transform="translate(15.000000, 22.000000)" fill="#FFFFFF">
                <path d="M24.094,52.531 C23.31275,51.74975 22.0628,51.74975 21.2815,52.531 C20.5002,53.31225 20.50025,54.5622 21.2815,55.3435 L26.2815,60.3435 C26.594,60.656 27.219,60.9685 27.6877,60.9685 C28.1564,60.9685 28.6252,60.81225 29.0939,60.3435 C29.87515,59.56225 29.87515,58.3123 29.0939,57.531 L24.094,52.531 Z" id="Fill-1"></path>
                <path d="M33.781,42.844 C32.99975,42.06275 31.7498,42.06275 30.9685,42.844 C30.1872,43.62525 30.18725,44.8752 30.9685,45.6565 L35.9685,50.6565 C36.281,50.969 36.906,51.2815 37.3747,51.2815 C37.8434,51.2815 38.3122,51.12525 38.7809,50.6565 C39.56215,49.87525 39.56215,48.6253 38.7809,47.844 L33.781,42.844 Z" id="Fill-2"></path>
                <path d="M32.062,50.656 C31.28075,49.87475 30.0308,49.87475 29.2495,50.656 C28.4682,51.43725 28.46825,52.6872 29.2495,53.4685 L31.1245,55.3435 C31.437,55.656 32.062,55.9685 32.5307,55.9685 C32.9994,55.9685 33.4682,55.81225 33.9369,55.3435 C34.71815,54.56225 34.71815,53.3123 33.9369,52.531 L32.062,50.656 Z" id="Fill-3"></path>
                <path d="M43.469,33.156 C42.68775,32.37475 41.4378,32.37475 40.6565,33.156 C39.8752,33.93725 39.87525,35.1872 40.6565,35.9685 L45.6565,40.9685 C45.969,41.281 46.594,41.5935 47.0627,41.5935 C47.5314,41.5935 48.0002,41.43725 48.4689,40.9685 C49.25015,40.18725 49.25015,38.9373 48.4689,38.156 L43.469,33.156 Z" id="Fill-4"></path>
                <path d="M41.75,41.125 C40.96875,40.34375 39.7188,40.34375 38.9375,41.125 C38.1562,41.90625 38.15625,43.1562 38.9375,43.9375 L40.8125,45.8125 C41.125,46.125 41.75,46.4375 42.2187,46.4375 C42.6874,46.4375 43.1562,46.28125 43.6249,45.8125 C44.40615,45.03125 44.40615,43.7813 43.6249,43 L41.75,41.125 Z" id="Fill-5"></path>
                <path d="M53.156,23.625 C52.37475,22.84375 51.1248,22.84375 50.3435,23.625 C49.5622,24.40625 49.56225,25.6562 50.3435,26.4375 L55.3435,31.4375 C55.656,31.75 56.281,32.0625 56.7497,32.0625 C57.2184,32.0625 57.6872,31.90625 58.1559,31.4375 C58.93715,30.65625 58.93715,29.4063 58.1559,28.625 L53.156,23.625 Z" id="Fill-6"></path>
                <path d="M51.438,31.438 C50.65675,30.65675 49.4068,30.65675 48.6255,31.438 C47.8442,32.21925 47.84425,33.4692 48.6255,34.2505 L50.5005,36.1255 C50.813,36.438 51.438,36.7505 51.9067,36.7505 C52.3754,36.7505 52.8442,36.59425 53.3129,36.1255 C54.09415,35.34425 54.09415,34.0943 53.3129,33.313 L51.438,31.438 Z" id="Fill-7"></path>
                <path d="M80.5,0.656 C79.71875,-0.12525 78.4688,-0.12525 77.6875,0.656 L66.5935,12.218 L63.3123,8.9368 C62.53105,8.15555 61.2811,8.15555 60.4998,8.9368 C60.34355,9.09305 60.34355,9.2493 60.1873,9.40555 L60.03105,9.2493 C58.15605,7.3743 55.03105,7.3743 52.99985,9.2493 L11.12485,51.1243 C10.18735,52.0618 9.71865,53.3118 9.71865,54.5618 C9.71865,55.8118 10.1874,57.0618 11.12485,57.9993 L15.81235,62.6868 L7.37485,71.4368 L4.09365,68.1556 C3.3124,67.37435 2.06245,67.37435 1.28115,68.1556 C0.49985,68.93685 0.4999,70.1868 1.28115,70.9681 L10.49995,80.1869 C10.81245,80.4994 11.43745,80.8119 11.90615,80.8119 C12.37485,80.8119 12.84365,80.65565 13.31235,80.1869 C14.0936,79.40565 14.0936,78.1557 13.31235,77.3744 L10.18735,74.2494 L18.62485,65.4994 L23.31235,70.1869 C24.24985,71.1244 25.49985,71.5931 26.74985,71.5931 C27.99985,71.5931 29.24985,71.12435 30.18735,70.1869 L72.21835,28.3119 C73.15585,27.3744 73.62455,26.1244 73.62455,24.8744 C73.62455,23.6244 73.1558,22.3744 72.21835,21.4369 L71.90585,21.1244 C72.0621,20.96815 72.21835,20.96815 72.3746,20.8119 C73.15585,20.03065 73.15585,18.7807 72.3746,17.9994 L69.2496,14.8744 L80.3436,3.3124 C81.2811,2.6874 81.2811,1.4374 80.49985,0.6562 L80.5,0.656 Z M69.719,25.656 L27.531,67.687 C27.37475,67.84325 27.06225,67.9995 26.74975,67.9995 C26.43725,67.9995 26.281,67.84325 25.9685,67.687 L13.7805,55.499 C13.62425,55.34275 13.468,55.03025 13.468,54.71775 C13.468,54.40525 13.62425,54.249 13.7805,53.9365 L55.8115,12.0615 C55.96775,11.90525 56.28025,11.749 56.59275,11.749 C56.90525,11.749 57.0615,11.90525 57.374,12.0615 L69.562,24.2495 C69.71825,24.40575 69.8745,24.71825 69.8745,25.03075 C69.8745,25.34325 69.8745,25.4995 69.71825,25.65575 L69.719,25.656 Z" id="Fill-8"></path>
            </g>
        </g>
    </g>
</svg>